<?xml version="1.0" encoding="UTF-8"?>
<!-- Do not edit this file with editors other than draw.io -->
<!DOCTYPE svg PUBLIC "-//W3C//DTD SVG 1.1//EN" "http://www.w3.org/Graphics/SVG/1.1/DTD/svg11.dtd">
<svg xmlns="http://www.w3.org/2000/svg" style="background: #ffffff; background-color: #ffffff; color-scheme: light;" xmlns:xlink="http://www.w3.org/1999/xlink" version="1.1" width="483px" height="362px" viewBox="0 0 483 362" content="&lt;mxfile host=&quot;app.diagrams.net&quot; agent=&quot;Mozilla/5.0 (Windows NT 10.0; Win64; x64; rv:148.0) Gecko/20100101 Firefox/148.0&quot; version=&quot;29.3.7&quot; scale=&quot;2&quot; border=&quot;0&quot;&gt;&#xA;  &lt;diagram name=&quot;Pagina-1&quot; id=&quot;9f-brG-_xeIc2zG1Jddn&quot;&gt;&#xA;    &lt;mxGraphModel dx=&quot;453&quot; dy=&quot;238&quot; grid=&quot;1&quot; gridSize=&quot;10&quot; guides=&quot;1&quot; tooltips=&quot;1&quot; connect=&quot;1&quot; arrows=&quot;1&quot; fold=&quot;1&quot; page=&quot;1&quot; pageScale=&quot;1&quot; pageWidth=&quot;827&quot; pageHeight=&quot;1169&quot; math=&quot;0&quot; shadow=&quot;0&quot;&gt;&#xA;      &lt;root&gt;&#xA;        &lt;mxCell id=&quot;0&quot; /&gt;&#xA;        &lt;mxCell id=&quot;1&quot; parent=&quot;0&quot; /&gt;&#xA;        &lt;mxCell id=&quot;cian8dwZMaNOj37_H4c_-1&quot; parent=&quot;1&quot; style=&quot;rounded=1;whiteSpace=wrap;html=1;fillColor=none;&quot; value=&quot;&quot; vertex=&quot;1&quot;&gt;&#xA;          &lt;mxGeometry height=&quot;160&quot; width=&quot;220&quot; x=&quot;320&quot; y=&quot;40&quot; as=&quot;geometry&quot; /&gt;&#xA;        &lt;/mxCell&gt;&#xA;        &lt;mxCell id=&quot;cian8dwZMaNOj37_H4c_-2&quot; parent=&quot;1&quot; style=&quot;aspect=fixed;sketch=0;html=1;dashed=0;whitespace=wrap;verticalLabelPosition=bottom;verticalAlign=top;fillColor=#2875E2;strokeColor=#ffffff;points=[[0.005,0.63,0],[0.1,0.2,0],[0.9,0.2,0],[0.5,0,0],[0.995,0.63,0],[0.72,0.99,0],[0.5,1,0],[0.28,0.99,0]];shape=mxgraph.kubernetes.icon2;kubernetesLabel=1;prIcon=pod&quot; value=&quot;&quot; vertex=&quot;1&quot;&gt;&#xA;          &lt;mxGeometry height=&quot;48&quot; width=&quot;50&quot; x=&quot;300&quot; y=&quot;20&quot; as=&quot;geometry&quot; /&gt;&#xA;        &lt;/mxCell&gt;&#xA;        &lt;mxCell id=&quot;cian8dwZMaNOj37_H4c_-3&quot; parent=&quot;1&quot; style=&quot;shape=image;verticalLabelPosition=bottom;labelBackgroundColor=default;verticalAlign=top;aspect=fixed;imageAspect=1;editableCssRules=.*;image=data:image/svg+xml,PHN2ZyBoZWlnaHQ9IjI0OTkuOTk5NTMwMzExNDk5MyIgdmlld0JveD0iLTAuMDM5MTI2OTU0OTcyNzQzOTkgMTE3LjYwNjk5NDYyODkwNjI1IDU5OC4wMjUwODU0NDkyMTg4IDQyMy42MzA5MjA0MTAxNTYyNSIgd2lkdGg9IjIyNjcuMDM2NjUyMTQ0MDg1NiIgeG1sbnM9Imh0dHA6Ly93d3cudzMub3JnLzIwMDAvc3ZnIj48ZyBmaWxsPSIjMDA5MWUyIj48cGF0aCBkPSJtNTkyLjE2MiAyNzcuODA0Yy0xLjY2NC0xLjM3LTE2LjY0Mi0xMi41OTctNDguODE1LTEyLjU5Ny04LjMyMSAwLTE2LjkyLjgyMi0yNS4yNCAyLjE5MS02LjEwMi00MS44OTgtNDEuMzI3LTYyLjE2Mi00Mi43MTQtNjMuMjU3bC04LjU5OC00LjkzLTUuNTQ3IDcuOTQyYy02LjkzNCAxMC42OC0xMi4yMDQgMjIuNzI5LTE1LjI1NSAzNS4wNTItNS44MjQgMjMuODI0LTIuMjE5IDQ2LjI3OSA5Ljk4NSA2NS40NDctMTQuNyA4LjIxNi0zOC41NTMgMTAuMTMzLTQzLjU0NSAxMC40MDZoLTM5My44NTNjLTEwLjI2MiAwLTE4LjU4MyA4LjIxNi0xOC41ODMgMTguMzQ4LS41NTQgMzMuOTU2IDUuMjcgNjcuOTEyIDE3LjE5NyA5OS45NTEgMTMuNTkgMzUuMDUyIDMzLjgzOCA2MS4wNjcgNTkuOTEgNzYuOTUgMjkuNCAxNy43OTkgNzcuMzgzIDI3LjkzMSAxMzEuNDY4IDI3LjkzMSAyNC40MDggMCA0OC44MTUtMi4xOSA3Mi45NDYtNi41NzIgMzMuNTYtNi4wMjUgNjUuNzM0LTE3LjUyNiA5NS40MTItMzQuMjNhMjYwLjQ4NSAyNjAuNDg1IDAgMCAwIDY0LjkwMi01Mi41NzdjMzEuMzQyLTM0Ljc3OCA0OS45MjUtNzMuNjYzIDYzLjUxNS0xMDguMTY3aDUuNTQ3YzM0LjExNiAwIDU1LjE5NS0xMy40MTggNjYuODQ0LTI0LjkyIDcuNzY2LTcuMTIgMTMuNTktMTUuODgyIDE3Ljc1MS0yNS43NGwyLjQ5Ny03LjEyeiIvPjxwYXRoIGQ9Im01NS4xOTMgMzA2LjgzaDUyLjY5OGMyLjQ5NyAwIDQuNzE2LTEuOTE2IDQuNzE2LTQuNjU0di00Ni41NTNjMC0yLjQ2NS0xLjk0Mi00LjY1NS00LjcxNi00LjY1NWgtNTIuNjk4Yy0yLjQ5NiAwLTQuNzE1IDEuOTE2LTQuNzE1IDQuNjU1djQ2LjU1M2MuMjc3IDIuNzM4IDIuMjE5IDQuNjU1IDQuNzE1IDQuNjU1em03Mi42NjggMGg1Mi42OTljMi40OTYgMCA0LjcxNS0xLjkxNiA0LjcxNS00LjY1NHYtNDYuNTUzYzAtMi40NjUtMS45NDItNC42NTUtNC43MTUtNC42NTVoLTUyLjdjLTIuNDk2IDAtNC43MTUgMS45MTYtNC43MTUgNC42NTV2NDYuNTUzYy4yNzggMi43MzggMi4yMiA0LjY1NSA0LjcxNSA0LjY1NW03NC4wNTUgMGg1Mi42OTljMi40OTYgMCA0LjcxNS0xLjkxNyA0LjcxNS00LjY1NXYtNDYuNTUzYzAtMi40NjUtMS45NDItNC42NTUtNC43MTUtNC42NTVoLTUyLjY5OWMtMi40OTYgMC00LjcxNSAxLjkxNi00LjcxNSA0LjY1NXY0Ni41NTNjMCAyLjczOCAxLjk0MiA0LjY1NSA0LjcxNSA0LjY1NXptNzIuOTQ2IDBoNTIuNjk5YzIuNDk2IDAgNC43MTUtMS45MTcgNC43MTUtNC42NTV2LTQ2LjU1M2MwLTIuNDY1LTEuOTQyLTQuNjU1LTQuNzE1LTQuNjU1aC01Mi42OTljLTIuNDk2IDAtNC43MTUgMS45MTYtNC43MTUgNC42NTV2NDYuNTUzYzAgMi43MzggMi4yMTkgNC42NTUgNC43MTUgNC42NTV6bS0xNDctNjYuNTQzaDUyLjY5OGMyLjQ5NiAwIDQuNzE1LTIuMTkgNC43MTUtNC42NTV2LTQ2LjU1M2MwLTIuNDY1LTEuOTQyLTQuNjU2LTQuNzE1LTQuNjU2aC01Mi42OTljLTIuNDk2IDAtNC43MTUgMS45MTctNC43MTUgNC42NTZ2NDYuNTUzYy4yNzggMi40NjQgMi4yMiA0LjY1NSA0LjcxNSA0LjY1NW03NC4wNTUgMGg1Mi42OTljMi40OTYgMCA0LjcxNS0yLjE5IDQuNzE1LTQuNjU1di00Ni41NTNjMC0yLjQ2NS0xLjk0Mi00LjY1Ni00LjcxNS00LjY1NmgtNTIuNjk5Yy0yLjQ5NiAwLTQuNzE1IDEuOTE3LTQuNzE1IDQuNjU2djQ2LjU1M2MwIDIuNDY0IDEuOTQyIDQuNjU1IDQuNzE1IDQuNjU1bTcyLjk0NiAwaDUyLjY5OWMyLjQ5NiAwIDQuNzE1LTIuMTkgNC43MTUtNC42NTV2LTQ2LjU1M2MwLTIuNDY1LTIuMjItNC42NTYtNC43MTUtNC42NTZoLTUyLjY5OWMtMi40OTYgMC00LjcxNSAxLjkxNy00LjcxNSA0LjY1NnY0Ni41NTNjMCAyLjQ2NCAyLjIxOSA0LjY1NSA0LjcxNSA0LjY1NW0wLTY2LjgxN2g1Mi42OTljMi40OTYgMCA0LjcxNS0xLjkxNyA0LjcxNS00LjY1NXYtNDYuNTUzYzAtMi40NjUtMi4yMi00LjY1Ni00LjcxNS00LjY1NmgtNTIuNjk5Yy0yLjQ5NiAwLTQuNzE1IDEuOTE3LTQuNzE1IDQuNjU2djQ2LjU1M2MwIDIuNDY0IDIuMjE5IDQuNjU1IDQuNzE1IDQuNjU1bTczLjUgMTMzLjM2aDUyLjY5OWMyLjQ5NiAwIDQuNzE1LTEuOTE3IDQuNzE1LTQuNjU1di00Ni41NTNjMC0yLjQ2NS0xLjk0MS00LjY1NS00LjcxNS00LjY1NWgtNTIuNjk4Yy0yLjQ5NyAwLTQuNzE2IDEuOTE2LTQuNzE2IDQuNjU1djQ2LjU1M2MuMjc4IDIuNzM4IDIuMjIgNC42NTUgNC43MTYgNC42NTUiLz48L2c+PC9zdmc+;&quot; value=&quot;Gateway&quot; vertex=&quot;1&quot;&gt;&#xA;          &lt;mxGeometry height=&quot;41.61&quot; width=&quot;37.73&quot; x=&quot;414&quot; y=&quot;50&quot; as=&quot;geometry&quot; /&gt;&#xA;        &lt;/mxCell&gt;&#xA;        &lt;mxCell id=&quot;cian8dwZMaNOj37_H4c_-4&quot; parent=&quot;1&quot; style=&quot;shape=image;verticalLabelPosition=bottom;labelBackgroundColor=default;verticalAlign=top;aspect=fixed;imageAspect=1;editableCssRules=.*;image=data:image/svg+xml,PHN2ZyBoZWlnaHQ9IjI0OTkuOTk5NTMwMzExNDk5MyIgdmlld0JveD0iLTAuMDM5MTI2OTU0OTcyNzQzOTkgMTE3LjYwNjk5NDYyODkwNjI1IDU5OC4wMjUwODU0NDkyMTg4IDQyMy42MzA5MjA0MTAxNTYyNSIgd2lkdGg9IjIyNjcuMDM2NjUyMTQ0MDg1NiIgeG1sbnM9Imh0dHA6Ly93d3cudzMub3JnLzIwMDAvc3ZnIj48ZyBmaWxsPSIjMDA5MWUyIj48cGF0aCBkPSJtNTkyLjE2MiAyNzcuODA0Yy0xLjY2NC0xLjM3LTE2LjY0Mi0xMi41OTctNDguODE1LTEyLjU5Ny04LjMyMSAwLTE2LjkyLjgyMi0yNS4yNCAyLjE5MS02LjEwMi00MS44OTgtNDEuMzI3LTYyLjE2Mi00Mi43MTQtNjMuMjU3bC04LjU5OC00LjkzLTUuNTQ3IDcuOTQyYy02LjkzNCAxMC42OC0xMi4yMDQgMjIuNzI5LTE1LjI1NSAzNS4wNTItNS44MjQgMjMuODI0LTIuMjE5IDQ2LjI3OSA5Ljk4NSA2NS40NDctMTQuNyA4LjIxNi0zOC41NTMgMTAuMTMzLTQzLjU0NSAxMC40MDZoLTM5My44NTNjLTEwLjI2MiAwLTE4LjU4MyA4LjIxNi0xOC41ODMgMTguMzQ4LS41NTQgMzMuOTU2IDUuMjcgNjcuOTEyIDE3LjE5NyA5OS45NTEgMTMuNTkgMzUuMDUyIDMzLjgzOCA2MS4wNjcgNTkuOTEgNzYuOTUgMjkuNCAxNy43OTkgNzcuMzgzIDI3LjkzMSAxMzEuNDY4IDI3LjkzMSAyNC40MDggMCA0OC44MTUtMi4xOSA3Mi45NDYtNi41NzIgMzMuNTYtNi4wMjUgNjUuNzM0LTE3LjUyNiA5NS40MTItMzQuMjNhMjYwLjQ4NSAyNjAuNDg1IDAgMCAwIDY0LjkwMi01Mi41NzdjMzEuMzQyLTM0Ljc3OCA0OS45MjUtNzMuNjYzIDYzLjUxNS0xMDguMTY3aDUuNTQ3YzM0LjExNiAwIDU1LjE5NS0xMy40MTggNjYuODQ0LTI0LjkyIDcuNzY2LTcuMTIgMTMuNTktMTUuODgyIDE3Ljc1MS0yNS43NGwyLjQ5Ny03LjEyeiIvPjxwYXRoIGQ9Im01NS4xOTMgMzA2LjgzaDUyLjY5OGMyLjQ5NyAwIDQuNzE2LTEuOTE2IDQuNzE2LTQuNjU0di00Ni41NTNjMC0yLjQ2NS0xLjk0Mi00LjY1NS00LjcxNi00LjY1NWgtNTIuNjk4Yy0yLjQ5NiAwLTQuNzE1IDEuOTE2LTQuNzE1IDQuNjU1djQ2LjU1M2MuMjc3IDIuNzM4IDIuMjE5IDQuNjU1IDQuNzE1IDQuNjU1em03Mi42NjggMGg1Mi42OTljMi40OTYgMCA0LjcxNS0xLjkxNiA0LjcxNS00LjY1NHYtNDYuNTUzYzAtMi40NjUtMS45NDItNC42NTUtNC43MTUtNC42NTVoLTUyLjdjLTIuNDk2IDAtNC43MTUgMS45MTYtNC43MTUgNC42NTV2NDYuNTUzYy4yNzggMi43MzggMi4yMiA0LjY1NSA0LjcxNSA0LjY1NW03NC4wNTUgMGg1Mi42OTljMi40OTYgMCA0LjcxNS0xLjkxNyA0LjcxNS00LjY1NXYtNDYuNTUzYzAtMi40NjUtMS45NDItNC42NTUtNC43MTUtNC42NTVoLTUyLjY5OWMtMi40OTYgMC00LjcxNSAxLjkxNi00LjcxNSA0LjY1NXY0Ni41NTNjMCAyLjczOCAxLjk0MiA0LjY1NSA0LjcxNSA0LjY1NXptNzIuOTQ2IDBoNTIuNjk5YzIuNDk2IDAgNC43MTUtMS45MTcgNC43MTUtNC42NTV2LTQ2LjU1M2MwLTIuNDY1LTEuOTQyLTQuNjU1LTQuNzE1LTQuNjU1aC01Mi42OTljLTIuNDk2IDAtNC43MTUgMS45MTYtNC43MTUgNC42NTV2NDYuNTUzYzAgMi43MzggMi4yMTkgNC42NTUgNC43MTUgNC42NTV6bS0xNDctNjYuNTQzaDUyLjY5OGMyLjQ5NiAwIDQuNzE1LTIuMTkgNC43MTUtNC42NTV2LTQ2LjU1M2MwLTIuNDY1LTEuOTQyLTQuNjU2LTQuNzE1LTQuNjU2aC01Mi42OTljLTIuNDk2IDAtNC43MTUgMS45MTctNC43MTUgNC42NTZ2NDYuNTUzYy4yNzggMi40NjQgMi4yMiA0LjY1NSA0LjcxNSA0LjY1NW03NC4wNTUgMGg1Mi42OTljMi40OTYgMCA0LjcxNS0yLjE5IDQuNzE1LTQuNjU1di00Ni41NTNjMC0yLjQ2NS0xLjk0Mi00LjY1Ni00LjcxNS00LjY1NmgtNTIuNjk5Yy0yLjQ5NiAwLTQuNzE1IDEuOTE3LTQuNzE1IDQuNjU2djQ2LjU1M2MwIDIuNDY0IDEuOTQyIDQuNjU1IDQuNzE1IDQuNjU1bTcyLjk0NiAwaDUyLjY5OWMyLjQ5NiAwIDQuNzE1LTIuMTkgNC43MTUtNC42NTV2LTQ2LjU1M2MwLTIuNDY1LTIuMjItNC42NTYtNC43MTUtNC42NTZoLTUyLjY5OWMtMi40OTYgMC00LjcxNSAxLjkxNy00LjcxNSA0LjY1NnY0Ni41NTNjMCAyLjQ2NCAyLjIxOSA0LjY1NSA0LjcxNSA0LjY1NW0wLTY2LjgxN2g1Mi42OTljMi40OTYgMCA0LjcxNS0xLjkxNyA0LjcxNS00LjY1NXYtNDYuNTUzYzAtMi40NjUtMi4yMi00LjY1Ni00LjcxNS00LjY1NmgtNTIuNjk5Yy0yLjQ5NiAwLTQuNzE1IDEuOTE3LTQuNzE1IDQuNjU2djQ2LjU1M2MwIDIuNDY0IDIuMjE5IDQuNjU1IDQuNzE1IDQuNjU1bTczLjUgMTMzLjM2aDUyLjY5OWMyLjQ5NiAwIDQuNzE1LTEuOTE3IDQuNzE1LTQuNjU1di00Ni41NTNjMC0yLjQ2NS0xLjk0MS00LjY1NS00LjcxNS00LjY1NWgtNTIuNjk4Yy0yLjQ5NyAwLTQuNzE2IDEuOTE2LTQuNzE2IDQuNjU1djQ2LjU1M2MuMjc4IDIuNzM4IDIuMjIgNC42NTUgNC43MTYgNC42NTUiLz48L2c+PC9zdmc+;&quot; value=&quot;Geneve&quot; vertex=&quot;1&quot;&gt;&#xA;          &lt;mxGeometry height=&quot;41.61&quot; width=&quot;37.73&quot; x=&quot;350&quot; y=&quot;110&quot; as=&quot;geometry&quot; /&gt;&#xA;        &lt;/mxCell&gt;&#xA;        &lt;mxCell id=&quot;cian8dwZMaNOj37_H4c_-5&quot; parent=&quot;1&quot; style=&quot;shape=image;verticalLabelPosition=bottom;labelBackgroundColor=default;verticalAlign=top;aspect=fixed;imageAspect=1;editableCssRules=.*;image=data:image/svg+xml,PHN2ZyBoZWlnaHQ9IjI0OTkuOTk5NTMwMzExNDk5MyIgdmlld0JveD0iLTAuMDM5MTI2OTU0OTcyNzQzOTkgMTE3LjYwNjk5NDYyODkwNjI1IDU5OC4wMjUwODU0NDkyMTg4IDQyMy42MzA5MjA0MTAxNTYyNSIgd2lkdGg9IjIyNjcuMDM2NjUyMTQ0MDg1NiIgeG1sbnM9Imh0dHA6Ly93d3cudzMub3JnLzIwMDAvc3ZnIj48ZyBmaWxsPSIjMDA5MWUyIj48cGF0aCBkPSJtNTkyLjE2MiAyNzcuODA0Yy0xLjY2NC0xLjM3LTE2LjY0Mi0xMi41OTctNDguODE1LTEyLjU5Ny04LjMyMSAwLTE2LjkyLjgyMi0yNS4yNCAyLjE5MS02LjEwMi00MS44OTgtNDEuMzI3LTYyLjE2Mi00Mi43MTQtNjMuMjU3bC04LjU5OC00LjkzLTUuNTQ3IDcuOTQyYy02LjkzNCAxMC42OC0xMi4yMDQgMjIuNzI5LTE1LjI1NSAzNS4wNTItNS44MjQgMjMuODI0LTIuMjE5IDQ2LjI3OSA5Ljk4NSA2NS40NDctMTQuNyA4LjIxNi0zOC41NTMgMTAuMTMzLTQzLjU0NSAxMC40MDZoLTM5My44NTNjLTEwLjI2MiAwLTE4LjU4MyA4LjIxNi0xOC41ODMgMTguMzQ4LS41NTQgMzMuOTU2IDUuMjcgNjcuOTEyIDE3LjE5NyA5OS45NTEgMTMuNTkgMzUuMDUyIDMzLjgzOCA2MS4wNjcgNTkuOTEgNzYuOTUgMjkuNCAxNy43OTkgNzcuMzgzIDI3LjkzMSAxMzEuNDY4IDI3LjkzMSAyNC40MDggMCA0OC44MTUtMi4xOSA3Mi45NDYtNi41NzIgMzMuNTYtNi4wMjUgNjUuNzM0LTE3LjUyNiA5NS40MTItMzQuMjNhMjYwLjQ4NSAyNjAuNDg1IDAgMCAwIDY0LjkwMi01Mi41NzdjMzEuMzQyLTM0Ljc3OCA0OS45MjUtNzMuNjYzIDYzLjUxNS0xMDguMTY3aDUuNTQ3YzM0LjExNiAwIDU1LjE5NS0xMy40MTggNjYuODQ0LTI0LjkyIDcuNzY2LTcuMTIgMTMuNTktMTUuODgyIDE3Ljc1MS0yNS43NGwyLjQ5Ny03LjEyeiIvPjxwYXRoIGQ9Im01NS4xOTMgMzA2LjgzaDUyLjY5OGMyLjQ5NyAwIDQuNzE2LTEuOTE2IDQuNzE2LTQuNjU0di00Ni41NTNjMC0yLjQ2NS0xLjk0Mi00LjY1NS00LjcxNi00LjY1NWgtNTIuNjk4Yy0yLjQ5NiAwLTQuNzE1IDEuOTE2LTQuNzE1IDQuNjU1djQ2LjU1M2MuMjc3IDIuNzM4IDIuMjE5IDQuNjU1IDQuNzE1IDQuNjU1em03Mi42NjggMGg1Mi42OTljMi40OTYgMCA0LjcxNS0xLjkxNiA0LjcxNS00LjY1NHYtNDYuNTUzYzAtMi40NjUtMS45NDItNC42NTUtNC43MTUtNC42NTVoLTUyLjdjLTIuNDk2IDAtNC43MTUgMS45MTYtNC43MTUgNC42NTV2NDYuNTUzYy4yNzggMi43MzggMi4yMiA0LjY1NSA0LjcxNSA0LjY1NW03NC4wNTUgMGg1Mi42OTljMi40OTYgMCA0LjcxNS0xLjkxNyA0LjcxNS00LjY1NXYtNDYuNTUzYzAtMi40NjUtMS45NDItNC42NTUtNC43MTUtNC42NTVoLTUyLjY5OWMtMi40OTYgMC00LjcxNSAxLjkxNi00LjcxNSA0LjY1NXY0Ni41NTNjMCAyLjczOCAxLjk0MiA0LjY1NSA0LjcxNSA0LjY1NXptNzIuOTQ2IDBoNTIuNjk5YzIuNDk2IDAgNC43MTUtMS45MTcgNC43MTUtNC42NTV2LTQ2LjU1M2MwLTIuNDY1LTEuOTQyLTQuNjU1LTQuNzE1LTQuNjU1aC01Mi42OTljLTIuNDk2IDAtNC43MTUgMS45MTYtNC43MTUgNC42NTV2NDYuNTUzYzAgMi43MzggMi4yMTkgNC42NTUgNC43MTUgNC42NTV6bS0xNDctNjYuNTQzaDUyLjY5OGMyLjQ5NiAwIDQuNzE1LTIuMTkgNC43MTUtNC42NTV2LTQ2LjU1M2MwLTIuNDY1LTEuOTQyLTQuNjU2LTQuNzE1LTQuNjU2aC01Mi42OTljLTIuNDk2IDAtNC43MTUgMS45MTctNC43MTUgNC42NTZ2NDYuNTUzYy4yNzggMi40NjQgMi4yMiA0LjY1NSA0LjcxNSA0LjY1NW03NC4wNTUgMGg1Mi42OTljMi40OTYgMCA0LjcxNS0yLjE5IDQuNzE1LTQuNjU1di00Ni41NTNjMC0yLjQ2NS0xLjk0Mi00LjY1Ni00LjcxNS00LjY1NmgtNTIuNjk5Yy0yLjQ5NiAwLTQuNzE1IDEuOTE3LTQuNzE1IDQuNjU2djQ2LjU1M2MwIDIuNDY0IDEuOTQyIDQuNjU1IDQuNzE1IDQuNjU1bTcyLjk0NiAwaDUyLjY5OWMyLjQ5NiAwIDQuNzE1LTIuMTkgNC43MTUtNC42NTV2LTQ2LjU1M2MwLTIuNDY1LTIuMjItNC42NTYtNC43MTUtNC42NTZoLTUyLjY5OWMtMi40OTYgMC00LjcxNSAxLjkxNy00LjcxNSA0LjY1NnY0Ni41NTNjMCAyLjQ2NCAyLjIxOSA0LjY1NSA0LjcxNSA0LjY1NW0wLTY2LjgxN2g1Mi42OTljMi40OTYgMCA0LjcxNS0xLjkxNyA0LjcxNS00LjY1NXYtNDYuNTUzYzAtMi40NjUtMi4yMi00LjY1Ni00LjcxNS00LjY1NmgtNTIuNjk5Yy0yLjQ5NiAwLTQuNzE1IDEuOTE3LTQuNzE1IDQuNjU2djQ2LjU1M2MwIDIuNDY0IDIuMjE5IDQuNjU1IDQuNzE1IDQuNjU1bTczLjUgMTMzLjM2aDUyLjY5OWMyLjQ5NiAwIDQuNzE1LTEuOTE3IDQuNzE1LTQuNjU1di00Ni41NTNjMC0yLjQ2NS0xLjk0MS00LjY1NS00LjcxNS00LjY1NWgtNTIuNjk4Yy0yLjQ5NyAwLTQuNzE2IDEuOTE2LTQuNzE2IDQuNjU1djQ2LjU1M2MuMjc4IDIuNzM4IDIuMjIgNC42NTUgNC43MTYgNC42NTUiLz48L2c+PC9zdmc+;&quot; value=&quot;Wireguard&quot; vertex=&quot;1&quot;&gt;&#xA;          &lt;mxGeometry height=&quot;41.61&quot; width=&quot;37.73&quot; x=&quot;480&quot; y=&quot;110&quot; as=&quot;geometry&quot; /&gt;&#xA;        &lt;/mxCell&gt;&#xA;      &lt;/root&gt;&#xA;    &lt;/mxGraphModel&gt;&#xA;  &lt;/diagram&gt;&#xA;&lt;/mxfile&gt;&#xA;"><defs/><rect fill="#ffffff" style="fill: rgb(255, 255, 255);" width="100%" height="100%" x="0" y="0"/><g><g data-cell-id="0"><g data-cell-id="1"><g data-cell-id="cian8dwZMaNOj37_H4c_-1"><g transform="translate(0.5,0.5)"><rect x="40" y="40" width="440" height="320" rx="48" ry="48" fill="none" stroke="#000000" style="stroke: rgb(0, 0, 0);" stroke-width="2" pointer-events="all"/></g></g><g data-cell-id="cian8dwZMaNOj37_H4c_-2"><g transform="translate(0.5,0.5)"><path d="M 49.64 0.05 C 48.77 0.11 47.89 0.33 47.12 0.71 L 12.75 17.11 C 10.94 17.98 9.62 19.63 9.18 21.55 L 0.68 58.44 C 0.3 60.14 0.63 61.95 1.56 63.43 C 1.73 63.6 1.84 63.76 1.95 63.98 L 25.74 93.53 C 27 95.07 28.92 96 30.89 96 L 69.05 96 C 71.03 96 72.94 95.07 74.21 93.53 L 98 63.93 C 99.21 62.39 99.7 60.36 99.26 58.44 L 90.76 21.55 C 90.32 19.63 89.01 17.98 87.2 17.11 L 52.82 0.71 C 51.84 0.22 50.74 0 49.64 0.05 Z" fill="#ffffff" style="fill: rgb(255, 255, 255);" stroke="none" pointer-events="all"/><path d="M 49.67 2.93 C 48.84 2.98 48.02 3.19 47.29 3.55 L 14.98 18.96 C 13.28 19.78 12.04 21.33 11.63 23.13 L 3.64 57.82 C 3.28 59.42 3.59 61.12 4.47 62.51 C 4.62 62.66 4.73 62.82 4.83 63.02 L 27.2 90.8 C 28.38 92.24 30.18 93.12 32.04 93.12 L 67.91 93.12 C 69.76 93.12 71.57 92.24 72.75 90.8 L 95.12 62.97 C 96.25 61.53 96.72 59.62 96.31 57.82 L 88.32 23.13 C 87.9 21.33 86.67 19.78 84.97 18.96 L 52.65 3.55 C 51.73 3.09 50.7 2.88 49.67 2.93 Z" fill="#2875e2" style="fill: rgb(40, 117, 226);" stroke="none" pointer-events="all"/><path d="M 70.93 27.59 L 70.93 49.87 L 51.43 60.67 L 51.34 33.42 Z M 29.07 27.59 L 29.07 49.87 L 48.57 60.67 L 48.67 33.43 Z M 29.07 25.27 L 50 19.2 L 70.93 25.27 L 50 31.34 Z" fill="#ffffff" style="fill: rgb(255, 255, 255);" stroke="none" pointer-events="all"/><g fill="#ffffff" style="fill: rgb(255, 255, 255);" font-family="Arial, Helvetica" text-anchor="middle" font-size="19.2px"><text x="50" y="79.6">pod</text></g></g></g><g data-cell-id="cian8dwZMaNOj37_H4c_-3"><g><g><svg height="83.22" viewBox="-0.03912695497274399 117.60699462890625 598.0250854492188 423.63092041015625" width="75.46" xmlns="http://www.w3.org/2000/svg" x="228" y="60" style="font-family: initial;"><g fill="#0091e2"><path d="m592.162 277.804c-1.664-1.37-16.642-12.597-48.815-12.597-8.321 0-16.92.822-25.24 2.191-6.102-41.898-41.327-62.162-42.714-63.257l-8.598-4.93-5.547 7.942c-6.934 10.68-12.204 22.729-15.255 35.052-5.824 23.824-2.219 46.279 9.985 65.447-14.7 8.216-38.553 10.133-43.545 10.406h-393.853c-10.262 0-18.583 8.216-18.583 18.348-.554 33.956 5.27 67.912 17.197 99.951 13.59 35.052 33.838 61.067 59.91 76.95 29.4 17.799 77.383 27.931 131.468 27.931 24.408 0 48.815-2.19 72.946-6.572 33.56-6.025 65.734-17.526 95.412-34.23a260.485 260.485 0 0 0 64.902-52.577c31.342-34.778 49.925-73.663 63.515-108.167h5.547c34.116 0 55.195-13.418 66.844-24.92 7.766-7.12 13.59-15.882 17.751-25.74l2.497-7.12z"/><path d="m55.193 306.83h52.698c2.497 0 4.716-1.916 4.716-4.654v-46.553c0-2.465-1.942-4.655-4.716-4.655h-52.698c-2.496 0-4.715 1.916-4.715 4.655v46.553c.277 2.738 2.219 4.655 4.715 4.655zm72.668 0h52.699c2.496 0 4.715-1.916 4.715-4.654v-46.553c0-2.465-1.942-4.655-4.715-4.655h-52.7c-2.496 0-4.715 1.916-4.715 4.655v46.553c.278 2.738 2.22 4.655 4.715 4.655m74.055 0h52.699c2.496 0 4.715-1.917 4.715-4.655v-46.553c0-2.465-1.942-4.655-4.715-4.655h-52.699c-2.496 0-4.715 1.916-4.715 4.655v46.553c0 2.738 1.942 4.655 4.715 4.655zm72.946 0h52.699c2.496 0 4.715-1.917 4.715-4.655v-46.553c0-2.465-1.942-4.655-4.715-4.655h-52.699c-2.496 0-4.715 1.916-4.715 4.655v46.553c0 2.738 2.219 4.655 4.715 4.655zm-147-66.543h52.698c2.496 0 4.715-2.19 4.715-4.655v-46.553c0-2.465-1.942-4.656-4.715-4.656h-52.699c-2.496 0-4.715 1.917-4.715 4.656v46.553c.278 2.464 2.22 4.655 4.715 4.655m74.055 0h52.699c2.496 0 4.715-2.19 4.715-4.655v-46.553c0-2.465-1.942-4.656-4.715-4.656h-52.699c-2.496 0-4.715 1.917-4.715 4.656v46.553c0 2.464 1.942 4.655 4.715 4.655m72.946 0h52.699c2.496 0 4.715-2.19 4.715-4.655v-46.553c0-2.465-2.22-4.656-4.715-4.656h-52.699c-2.496 0-4.715 1.917-4.715 4.656v46.553c0 2.464 2.219 4.655 4.715 4.655m0-66.817h52.699c2.496 0 4.715-1.917 4.715-4.655v-46.553c0-2.465-2.22-4.656-4.715-4.656h-52.699c-2.496 0-4.715 1.917-4.715 4.656v46.553c0 2.464 2.219 4.655 4.715 4.655m73.5 133.36h52.699c2.496 0 4.715-1.917 4.715-4.655v-46.553c0-2.465-1.941-4.655-4.715-4.655h-52.698c-2.497 0-4.716 1.916-4.716 4.655v46.553c.278 2.738 2.22 4.655 4.716 4.655"/></g></svg></g></g><g><g fill="#000000" style="fill: rgb(0, 0, 0);" font-family="Helvetica" text-anchor="middle" font-size="23.999999999999996px"><rect fill="#ffffff" stroke="none" x="219" y="160" width="96" height="30" style="fill: rgb(255, 255, 255);" stroke-width="0"/><text x="265.73" y="179.22">Gateway</text></g></g></g><g data-cell-id="cian8dwZMaNOj37_H4c_-4"><g><g><svg height="83.22" viewBox="-0.03912695497274399 117.60699462890625 598.0250854492188 423.63092041015625" width="75.46" xmlns="http://www.w3.org/2000/svg" x="100" y="180" style="font-family: initial;"><g fill="#0091e2"><path d="m592.162 277.804c-1.664-1.37-16.642-12.597-48.815-12.597-8.321 0-16.92.822-25.24 2.191-6.102-41.898-41.327-62.162-42.714-63.257l-8.598-4.93-5.547 7.942c-6.934 10.68-12.204 22.729-15.255 35.052-5.824 23.824-2.219 46.279 9.985 65.447-14.7 8.216-38.553 10.133-43.545 10.406h-393.853c-10.262 0-18.583 8.216-18.583 18.348-.554 33.956 5.27 67.912 17.197 99.951 13.59 35.052 33.838 61.067 59.91 76.95 29.4 17.799 77.383 27.931 131.468 27.931 24.408 0 48.815-2.19 72.946-6.572 33.56-6.025 65.734-17.526 95.412-34.23a260.485 260.485 0 0 0 64.902-52.577c31.342-34.778 49.925-73.663 63.515-108.167h5.547c34.116 0 55.195-13.418 66.844-24.92 7.766-7.12 13.59-15.882 17.751-25.74l2.497-7.12z"/><path d="m55.193 306.83h52.698c2.497 0 4.716-1.916 4.716-4.654v-46.553c0-2.465-1.942-4.655-4.716-4.655h-52.698c-2.496 0-4.715 1.916-4.715 4.655v46.553c.277 2.738 2.219 4.655 4.715 4.655zm72.668 0h52.699c2.496 0 4.715-1.916 4.715-4.654v-46.553c0-2.465-1.942-4.655-4.715-4.655h-52.7c-2.496 0-4.715 1.916-4.715 4.655v46.553c.278 2.738 2.22 4.655 4.715 4.655m74.055 0h52.699c2.496 0 4.715-1.917 4.715-4.655v-46.553c0-2.465-1.942-4.655-4.715-4.655h-52.699c-2.496 0-4.715 1.916-4.715 4.655v46.553c0 2.738 1.942 4.655 4.715 4.655zm72.946 0h52.699c2.496 0 4.715-1.917 4.715-4.655v-46.553c0-2.465-1.942-4.655-4.715-4.655h-52.699c-2.496 0-4.715 1.916-4.715 4.655v46.553c0 2.738 2.219 4.655 4.715 4.655zm-147-66.543h52.698c2.496 0 4.715-2.19 4.715-4.655v-46.553c0-2.465-1.942-4.656-4.715-4.656h-52.699c-2.496 0-4.715 1.917-4.715 4.656v46.553c.278 2.464 2.22 4.655 4.715 4.655m74.055 0h52.699c2.496 0 4.715-2.19 4.715-4.655v-46.553c0-2.465-1.942-4.656-4.715-4.656h-52.699c-2.496 0-4.715 1.917-4.715 4.656v46.553c0 2.464 1.942 4.655 4.715 4.655m72.946 0h52.699c2.496 0 4.715-2.19 4.715-4.655v-46.553c0-2.465-2.22-4.656-4.715-4.656h-52.699c-2.496 0-4.715 1.917-4.715 4.656v46.553c0 2.464 2.219 4.655 4.715 4.655m0-66.817h52.699c2.496 0 4.715-1.917 4.715-4.655v-46.553c0-2.465-2.22-4.656-4.715-4.656h-52.699c-2.496 0-4.715 1.917-4.715 4.656v46.553c0 2.464 2.219 4.655 4.715 4.655m73.5 133.36h52.699c2.496 0 4.715-1.917 4.715-4.655v-46.553c0-2.465-1.941-4.655-4.715-4.655h-52.698c-2.497 0-4.716 1.916-4.716 4.655v46.553c.278 2.738 2.22 4.655 4.716 4.655"/></g></svg></g></g><g><g fill="#000000" style="fill: rgb(0, 0, 0);" font-family="Helvetica" text-anchor="middle" font-size="23.999999999999996px"><rect fill="#ffffff" stroke="none" x="96" y="280" width="86" height="30" style="fill: rgb(255, 255, 255);" stroke-width="0"/><text x="137.73" y="299.22">Geneve</text></g></g></g><g data-cell-id="cian8dwZMaNOj37_H4c_-5"><g><g><svg height="83.22" viewBox="-0.03912695497274399 117.60699462890625 598.0250854492188 423.63092041015625" width="75.46" xmlns="http://www.w3.org/2000/svg" x="360" y="180" style="font-family: initial;"><g fill="#0091e2"><path d="m592.162 277.804c-1.664-1.37-16.642-12.597-48.815-12.597-8.321 0-16.92.822-25.24 2.191-6.102-41.898-41.327-62.162-42.714-63.257l-8.598-4.93-5.547 7.942c-6.934 10.68-12.204 22.729-15.255 35.052-5.824 23.824-2.219 46.279 9.985 65.447-14.7 8.216-38.553 10.133-43.545 10.406h-393.853c-10.262 0-18.583 8.216-18.583 18.348-.554 33.956 5.27 67.912 17.197 99.951 13.59 35.052 33.838 61.067 59.91 76.95 29.4 17.799 77.383 27.931 131.468 27.931 24.408 0 48.815-2.19 72.946-6.572 33.56-6.025 65.734-17.526 95.412-34.23a260.485 260.485 0 0 0 64.902-52.577c31.342-34.778 49.925-73.663 63.515-108.167h5.547c34.116 0 55.195-13.418 66.844-24.92 7.766-7.12 13.59-15.882 17.751-25.74l2.497-7.12z"/><path d="m55.193 306.83h52.698c2.497 0 4.716-1.916 4.716-4.654v-46.553c0-2.465-1.942-4.655-4.716-4.655h-52.698c-2.496 0-4.715 1.916-4.715 4.655v46.553c.277 2.738 2.219 4.655 4.715 4.655zm72.668 0h52.699c2.496 0 4.715-1.916 4.715-4.654v-46.553c0-2.465-1.942-4.655-4.715-4.655h-52.7c-2.496 0-4.715 1.916-4.715 4.655v46.553c.278 2.738 2.22 4.655 4.715 4.655m74.055 0h52.699c2.496 0 4.715-1.917 4.715-4.655v-46.553c0-2.465-1.942-4.655-4.715-4.655h-52.699c-2.496 0-4.715 1.916-4.715 4.655v46.553c0 2.738 1.942 4.655 4.715 4.655zm72.946 0h52.699c2.496 0 4.715-1.917 4.715-4.655v-46.553c0-2.465-1.942-4.655-4.715-4.655h-52.699c-2.496 0-4.715 1.916-4.715 4.655v46.553c0 2.738 2.219 4.655 4.715 4.655zm-147-66.543h52.698c2.496 0 4.715-2.19 4.715-4.655v-46.553c0-2.465-1.942-4.656-4.715-4.656h-52.699c-2.496 0-4.715 1.917-4.715 4.656v46.553c.278 2.464 2.22 4.655 4.715 4.655m74.055 0h52.699c2.496 0 4.715-2.19 4.715-4.655v-46.553c0-2.465-1.942-4.656-4.715-4.656h-52.699c-2.496 0-4.715 1.917-4.715 4.656v46.553c0 2.464 1.942 4.655 4.715 4.655m72.946 0h52.699c2.496 0 4.715-2.19 4.715-4.655v-46.553c0-2.465-2.22-4.656-4.715-4.656h-52.699c-2.496 0-4.715 1.917-4.715 4.656v46.553c0 2.464 2.219 4.655 4.715 4.655m0-66.817h52.699c2.496 0 4.715-1.917 4.715-4.655v-46.553c0-2.465-2.22-4.656-4.715-4.656h-52.699c-2.496 0-4.715 1.917-4.715 4.656v46.553c0 2.464 2.219 4.655 4.715 4.655m73.5 133.36h52.699c2.496 0 4.715-1.917 4.715-4.655v-46.553c0-2.465-1.941-4.655-4.715-4.655h-52.698c-2.497 0-4.716 1.916-4.716 4.655v46.553c.278 2.738 2.22 4.655 4.716 4.655"/></g></svg></g></g><g><g fill="#000000" style="fill: rgb(0, 0, 0);" font-family="Helvetica" text-anchor="middle" font-size="23.999999999999996px"><rect fill="#ffffff" stroke="none" x="343" y="280" width="112" height="30" style="fill: rgb(255, 255, 255);" stroke-width="0"/><text x="397.73" y="299.22">Wireguard</text></g></g></g></g></g></g></svg>